<svg width="18" height="11" viewBox="0 0 18 11" fill="none" xmlns="http://www.w3.org/2000/svg">
<path d="M1.60499 6.442C1.79299 8.134 1.88699 8.98 2.45599 9.49C3.02599 10 3.87699 10 5.57999 10H10.827C12 10 12.587 10 13.063 9.713C13.539 9.427 13.813 8.908 14.363 7.872L16.83 3.209C16.9514 2.97967 17.0114 2.72285 17.0042 2.46348C16.9971 2.20411 16.923 1.951 16.7891 1.72871C16.6553 1.50642 16.4663 1.32251 16.2404 1.19483C16.0145 1.06715 15.7595 1.00003 15.5 1H5.46899C3.38299 1 2.34099 1 1.74399 1.666C1.14799 2.332 1.26399 3.369 1.49399 5.442L1.60499 6.442Z" stroke="white" stroke-linecap="round" stroke-linejoin="round"/>
</svg>
