<svg width="16" height="16" viewBox="0 0 16 16" fill="none" xmlns="http://www.w3.org/2000/svg">
<path d="M2.06828 8.79668L6.75161 14.0892C6.908 14.266 7.10016 14.4075 7.31537 14.5045C7.53057 14.6014 7.76391 14.6516 7.99995 14.6516C8.23598 14.6516 8.46933 14.6014 8.68453 14.5045C8.89974 14.4075 9.09189 14.266 9.24828 14.0892L13.9316 8.79668C15.3258 7.22085 16.05 5.23918 15.0025 3.35001C13.7924 1.16668 11.5749 0.720012 9.64745 2.18668C9.11537 2.59968 8.62271 3.0611 8.17578 3.56501C8.15359 3.58964 8.12647 3.60934 8.09618 3.62282C8.06589 3.6363 8.0331 3.64327 7.99995 3.64327C7.96679 3.64327 7.93401 3.6363 7.90372 3.62282C7.87343 3.60934 7.84631 3.58964 7.82411 3.56501C7.37719 3.0611 6.88452 2.59968 6.35245 2.18668C4.42495 0.720012 2.20745 1.16668 0.997448 3.35001C-0.0500524 5.23918 0.674114 7.22085 2.06828 8.79668Z" stroke="#4F4F4F" stroke-linecap="round" stroke-linejoin="round"/>
</svg>
