<svg width="26" height="26" viewBox="0 0 26 26" fill="none" xmlns="http://www.w3.org/2000/svg">
<path d="M20.335 15.3288L16.335 13.3288C16.2169 13.27 16.0853 13.2434 15.9536 13.2518C15.8219 13.2601 15.6948 13.3031 15.585 13.3762L13.625 14.6825C12.6327 14.1745 11.8255 13.3673 11.3175 12.375L12.625 10.4163C12.6982 10.3065 12.7411 10.1793 12.7495 10.0476C12.7578 9.91595 12.7313 9.78439 12.6725 9.66625L10.6725 5.66625C10.6103 5.54111 10.5144 5.43582 10.3956 5.36228C10.2768 5.28873 10.1397 5.24984 10 5.25C8.74023 5.25 7.53205 5.75045 6.64125 6.64124C5.75045 7.53204 5.25001 8.74022 5.25001 10C5.25331 12.8501 6.38696 15.5824 8.40226 17.5977C10.4176 19.613 13.1499 20.7467 16 20.75C17.2598 20.75 18.468 20.2496 19.3588 19.3588C20.2496 18.468 20.75 17.2598 20.75 16C20.75 15.8606 20.7112 15.7239 20.6379 15.6054C20.5646 15.4868 20.4597 15.391 20.335 15.3288ZM16 19.25C13.5477 19.247 11.1966 18.2715 9.46256 16.5374C7.72849 14.8034 6.75298 12.4523 6.75001 10C6.75008 9.21562 7.03382 8.45773 7.54889 7.86616C8.06396 7.27459 8.7756 6.88925 9.55251 6.78125L11.135 9.94625L9.83626 11.8938C9.76802 11.9965 9.72616 12.1144 9.71438 12.2372C9.70261 12.3599 9.72128 12.4837 9.76876 12.5975C10.4584 14.2372 11.7628 15.5416 13.4025 16.2313C13.5163 16.2787 13.6401 16.2974 13.7628 16.2856C13.8856 16.2738 14.0035 16.232 14.1063 16.1637L16.0538 14.865L19.2188 16.4475C19.1108 17.2244 18.7254 17.936 18.1338 18.4511C17.5423 18.9662 16.7844 19.2499 16 19.25ZM13 0.25C10.7897 0.249536 8.61732 0.82366 6.69587 1.91604C4.77442 3.00843 3.16995 4.58155 2.03986 6.48107C0.909779 8.3806 0.292905 10.5413 0.24976 12.7511C0.206614 14.961 0.73868 17.1441 1.79376 19.0863L0.341257 23.445C0.238428 23.7533 0.223505 24.0842 0.298161 24.4006C0.372817 24.7169 0.534102 25.0062 0.763938 25.2361C0.993774 25.4659 1.28308 25.6272 1.59943 25.7018C1.91577 25.7765 2.24666 25.7616 2.55501 25.6588L6.91376 24.2062C8.61998 25.1322 10.5151 25.6563 12.4546 25.7385C14.3942 25.8208 16.3269 25.4591 18.1054 24.681C19.8839 23.903 21.4613 22.729 22.7172 21.2488C23.9732 19.7685 24.8745 18.021 25.3525 16.1395C25.8305 14.258 25.8726 12.2922 25.4755 10.3919C25.0784 8.49171 24.2526 6.70725 23.0612 5.17462C21.8697 3.64199 20.344 2.40167 18.6004 1.54822C16.8568 0.694777 14.9413 0.250751 13 0.25ZM13 24.25C11.0224 24.2505 9.07965 23.7296 7.36751 22.74C7.25337 22.6744 7.12416 22.6395 6.99251 22.6388C6.91181 22.6392 6.83167 22.6523 6.75501 22.6775L2.08126 24.235C2.03721 24.2497 1.98994 24.2518 1.94475 24.2412C1.89955 24.2305 1.85822 24.2075 1.82539 24.1746C1.79256 24.1418 1.76952 24.1005 1.75885 24.0553C1.74819 24.0101 1.75032 23.9628 1.76501 23.9188L3.32251 19.25C3.35621 19.1491 3.36806 19.0422 3.35728 18.9364C3.34651 18.8306 3.31335 18.7283 3.26001 18.6362C2.01908 16.4926 1.52028 13.9994 1.841 11.5433C2.16171 9.08726 3.28402 6.8057 5.03379 5.0526C6.78357 3.2995 9.06299 2.17287 11.5184 1.84749C13.9739 1.52211 16.4681 2.01618 18.614 3.25304C20.76 4.4899 22.4378 6.40041 23.3872 8.68816C24.3365 10.9759 24.5043 13.513 23.8645 15.9059C23.2247 18.2987 21.8131 20.4136 19.8487 21.9223C17.8843 23.431 15.4769 24.2492 13 24.25Z" fill="#4F4F4F"/>
</svg>
